<?xml version="1.0" standalone="no"?>
<!DOCTYPE svg PUBLIC "-//W3C//DTD SVG 20010904//EN"
 "http://www.w3.org/TR/2001/REC-SVG-20010904/DTD/svg10.dtd">
<svg version="1.0" xmlns="http://www.w3.org/2000/svg"
 width="1280.000000pt" height="832.000000pt" viewBox="0 0 1280.000000 832.000000"
 preserveAspectRatio="xMidYMid meet">
<metadata>
Created by potrace 1.15, written by Peter Selinger 2001-2017
</metadata>
<g transform="translate(0.000000,832.000000) scale(0.100000,-0.100000)"
fill="red" stroke="none">
<path d="M1595 8291 c-108 -51 -180 -149 -222 -301 -24 -87 -24 -418 1 -600
39 -292 130 -549 273 -770 66 -101 114 -160 248 -300 56 -58 127 -137 158
-176 31 -39 92 -100 135 -135 148 -123 492 -488 492 -524 0 -13 -7 -15 -42
-10 -24 4 -97 7 -163 8 -103 1 -129 -2 -185 -22 -36 -13 -119 -31 -185 -42
-66 -10 -157 -25 -202 -34 -91 -16 -123 -13 -198 20 -123 55 -208 70 -482 85
-266 15 -457 -15 -588 -92 -263 -155 -496 -350 -548 -459 -34 -72 -57 -188
-64 -324 -5 -99 -4 -116 15 -158 42 -95 158 -205 300 -285 42 -24 81 -47 86
-52 10 -10 10 -10 -62 -29 -84 -23 -255 -212 -311 -344 -35 -82 -54 -201 -48
-302 9 -144 55 -251 151 -354 109 -115 240 -195 378 -230 40 -10 74 -23 75
-28 2 -5 -14 -18 -36 -28 -86 -38 -179 -161 -215 -284 -21 -72 -21 -234 0
-315 48 -188 190 -337 464 -491 125 -69 232 -116 288 -124 25 -3 47 -11 49
-17 2 -6 -17 -36 -42 -65 -96 -113 -124 -221 -91 -362 32 -137 99 -231 231
-327 45 -33 110 -91 144 -128 64 -74 162 -146 276 -206 67 -36 71 -37 142 -30
67 6 79 4 135 -21 54 -24 70 -27 129 -22 l67 6 67 -54 c83 -66 165 -95 270
-95 91 0 143 17 243 78 l76 47 120 -3 c67 -1 165 -7 220 -12 129 -13 511 -13
634 0 266 29 612 114 1002 245 221 74 284 90 495 119 613 87 772 100 1145 93
359 -7 583 -28 1085 -103 473 -71 639 -99 1080 -184 439 -84 492 -93 723 -125
170 -23 1171 -136 1327 -149 863 -75 1009 -92 1620 -191 116 -19 273 -44 350
-55 77 -11 152 -23 168 -26 l27 -6 0 2081 c0 1975 -1 2081 -17 2081 -10 0 -81
-12 -158 -25 -353 -63 -704 -117 -900 -140 -150 -17 -636 -47 -1040 -65 -253
-11 -524 -24 -602 -30 -356 -25 -1011 -32 -1893 -20 -1696 24 -1733 25 -1842
49 -310 68 -555 206 -706 396 -35 44 -138 172 -230 284 -647 789 -741 910
-992 1272 -76 110 -179 217 -270 281 -36 26 -137 82 -225 126 -173 87 -309
167 -414 241 -196 141 -420 307 -446 331 -16 16 -47 35 -67 44 -26 10 -38 21
-38 35 0 23 -90 105 -152 139 -27 14 -47 35 -58 60 -17 38 -86 96 -173 146
-26 15 -126 106 -222 202 l-175 174 -64 133 c-76 158 -160 306 -230 404 -41
58 -61 76 -106 97 -70 33 -111 33 -185 -3z"/>
</g>
</svg>
